<svg width="30" height="30" fill="none" xmlns="http://www.w3.org/2000/svg"><path d="M5.938 30h18.125A5.944 5.944 0 0030 24.062V5.938A5.944 5.944 0 0024.062 0H5.938A5.944 5.944 0 000 5.938v18.125A5.944 5.944 0 005.938 30zM1.875 5.937a4.067 4.067 0 014.063-4.062h18.125a4.067 4.067 0 014.062 4.063v18.125a4.067 4.067 0 01-4.063 4.062H5.938a4.067 4.067 0 01-4.062-4.063V5.938z" fill="#C4C4C4"/><path d="M15 22.663c4.225 0 7.662-3.438 7.662-7.663S19.225 7.337 15 7.337 7.337 10.775 7.337 15s3.438 7.663 7.663 7.663zm0-13.45A5.794 5.794 0 0120.787 15 5.794 5.794 0 0115 20.788 5.794 5.794 0 019.212 15 5.794 5.794 0 0115 9.212zm7.948-.011c1.232 0 2.16-.925 2.16-2.15 0-1.28-.977-2.152-2.16-2.152-1.232 0-2.16.925-2.16 2.151 0 1.276.972 2.151 2.16 2.151zm.22-2.357c.396.349-.505.772-.505.207 0-.337.458-.25.506-.207z" fill="#C4C4C4"/></svg>