<svg width="32" height="32" fill="none" xmlns="http://www.w3.org/2000/svg"><path d="M16 1.012c2.525 0 4.586.03 6.183.088 1.361.059 2.574.293 3.64.703A7.559 7.559 0 0128.485 3.5a7.464 7.464 0 011.716 2.635c.414 1.054.651 2.254.71 3.601.06 1.581.089 3.621.089 6.12 0 2.498-.03 4.538-.089 6.119-.059 1.346-.296 2.547-.71 3.6a7.464 7.464 0 01-1.716 2.636 7.558 7.558 0 01-2.662 1.698c-1.066.41-2.279.644-3.64.703-1.597.058-3.658.088-6.183.088s-4.586-.03-6.183-.088c-1.361-.059-2.574-.293-3.64-.703a7.558 7.558 0 01-2.662-1.698 7.463 7.463 0 01-1.716-2.635c-.414-1.054-.651-2.255-.71-3.601-.06-1.581-.089-3.621-.089-6.12 0-2.498.03-4.538.089-6.119.059-1.347.296-2.547.71-3.601A7.463 7.463 0 013.515 3.5a7.559 7.559 0 012.663-1.698c1.065-.41 2.278-.644 3.639-.703 1.597-.058 3.658-.088 6.183-.088zm0 1.933c-2.623 0-4.763.029-6.42.088a9.586 9.586 0 00-2.959.556c-1.42.585-2.426 1.58-3.017 2.986a9.313 9.313 0 00-.563 2.928c-.059 1.64-.088 3.757-.088 6.353 0 2.597.03 4.714.088 6.354.04 1.054.227 2.03.563 2.928.591 1.405 1.597 2.4 3.017 2.986a9.589 9.589 0 002.959.556c1.657.059 3.797.088 6.42.088 2.623 0 4.763-.03 6.42-.088a9.589 9.589 0 002.959-.556c1.42-.585 2.426-1.581 3.017-2.986a9.315 9.315 0 00.563-2.928c.059-1.64.088-3.758.088-6.354s-.03-4.713-.088-6.353a9.315 9.315 0 00-.563-2.928c-.591-1.405-1.597-2.4-3.017-2.986a9.586 9.586 0 00-2.959-.556A189.06 189.06 0 0016 2.945zM16 21.8c1.657 0 3.072-.58 4.246-1.742 1.173-1.162 1.76-2.562 1.76-4.202 0-1.64-.587-3.04-1.76-4.201-1.174-1.161-2.59-1.742-4.246-1.742-1.657 0-3.072.58-4.246 1.742-1.173 1.161-1.76 2.562-1.76 4.201 0 1.64.587 3.04 1.76 4.202C12.928 21.219 14.344 21.8 16 21.8zm0-13.556c2.13 0 3.945.742 5.444 2.225 1.499 1.484 2.248 3.28 2.248 5.387 0 2.109-.75 3.904-2.248 5.388-1.5 1.483-3.314 2.225-5.444 2.225s-3.945-.742-5.444-2.225c-1.499-1.484-2.248-3.28-2.248-5.388s.75-3.903 2.248-5.387c1.5-1.483 3.314-2.225 5.444-2.225zm9.823-.293c0 .488-.178.903-.533 1.245a1.807 1.807 0 01-1.302.512 1.72 1.72 0 01-1.257-.512 1.685 1.685 0 01-.518-1.245c0-.507.173-.937.518-1.288a1.697 1.697 0 011.257-.527c.493 0 .922.18 1.287.542.365.36.548.785.548 1.273z" fill="#C5C5C5" stroke="#C5C5C5"/></svg>