<svg width="20" height="20" fill="none" xmlns="http://www.w3.org/2000/svg"><path d="M2.428 0a2 2 0 00-2 2v16a2 2 0 002 2h15.28a2 2 0 002-2V2a2 2 0 00-2-2H2.427zM2.18 3.818a2 2 0 012-2h11.774a2 2 0 012 2v12.364a2 2 0 01-2 2H4.18a2 2 0 01-2-2V3.818zm7.888-.182C6.65 3.636 3.933 6.455 3.933 10c0 .945.224 1.832.583 2.614.17.372.232.79.124 1.184l-.032.114a1.458 1.458 0 001.782 1.796c.39-.104.8-.032 1.166.136.752.347 1.604.52 2.512.52 3.417 0 6.134-2.819 6.134-6.364s-2.717-6.364-6.135-6.364zm0 1.364c2.629 0 4.82 2.273 4.82 5s-2.191 5-4.82 5c-.877 0-1.666-.273-2.367-.636a1.083 1.083 0 00-.926-.104l-.038.013a.494.494 0 01-.621-.61l.008-.027.015-.045a1.183 1.183 0 00-.103-.955 5.023 5.023 0 01-.7-2.545C5.247 7.273 7.437 5 10.067 5zM8.14 7.364c-.274 0-.498.246-.645.476-.125.196-.232.486-.232.887 0 .637.438 1.364.526 1.455.088.09.964 1.545 2.366 2.182.876.363 1.227.454 1.665.363.263-.09.877-.363.964-.727.024-.1.041-.191.056-.27.015-.08-.07-.329-.143-.366-.176-.091-.877-.455-.964-.455a.6.6 0 01-.083-.006c-.21-.03-.34.178-.47.346-.093.122-.19.248-.236.296-.088.091-.088.091-.263 0-.815-.422-1.327-.766-1.817-1.543-.076-.12-.168-.267-.098-.39.065-.115.223-.226.388-.539.025-.048.07-.097.075-.15.014-.132-.082-.256-.136-.376-.079-.178-.18-.447-.256-.663-.058-.164-.117-.337-.247-.452-.077-.068-.132-.068-.188-.068H8.14z" fill="#AC6800"/></svg>