<svg width="32" height="32" fill="none" xmlns="http://www.w3.org/2000/svg"><path d="M24.822 7.725a1.663 1.663 0 00-1.697-.288L7.745 13.48a1.666 1.666 0 00.283 3.186l3.639.727V22a1.666 1.666 0 002.845 1.178l1.94-1.94 3.047 2.68a1.653 1.653 0 001.613.335 1.652 1.652 0 001.113-1.214l3.134-13.677a1.663 1.663 0 00-.537-1.636zm-7.163 4.008l-5.224 3.774-2.903-.581 8.127-3.193zm-3.992 9.46v-2.408l1.281 1.127-1.281 1.282zm6.733.853l-6.132-5.396 8.83-6.378L20.4 22.046z" fill="#AC6800"/><rect x="1" y="1" width="30" height="30" rx="5" stroke="#AC6800" stroke-width="2"/></svg>