<svg width="30" height="30" fill="none" xmlns="http://www.w3.org/2000/svg"><path d="M21.813 16c-.205-.276-.16-.456-.004-.732.196-.344.586-.87 1-1.426 1.324-1.783 2.178-3.018 2.001-3.899a.586.586 0 00-.574-.47c-.002 0-2.884 0-3.947.006a.58.58 0 00-.559.413c-.128.432-.628 1.6-1.233 2.668-.785 1.386-1.3 1.82-1.481 1.896l-.029-.009c-.06-.073-.162-.271-.204-.783-.045-.535-.006-1.183.032-1.81.045-.732.083-1.365-.009-1.816-.063-.165-.015-.707-.52-.82-.695-.158-1.639-.21-2.311-.217-1.594-.016-2.063.214-2.293.417a.585.585 0 00.201.995c.358.12.485.272.587.992.065.46.099 1.23.028 1.919-.098.97-.334 1.165-.357 1.181-.05-.017-.441-.186-1.148-1.62-.608-1.234-1.119-2.716-1.357-3.331a.586.586 0 00-.547-.374H5.586a.586.586 0 00-.547.797c1.098 2.842 2.357 5.752 4.124 7.79 1.827 2.107 4.083 3.131 6.896 3.131a.586.586 0 00.586-.585c0-1.011.142-1.311.364-1.732.123-.233.243-.333.308-.347.06-.014.164.03.28.116.334.248.598.575.878.92.404.499.821 1.014 1.484 1.352.36.183 1.007.276 1.378.27h2.925c.333 0 .6-.27.586-.604-.072-1.732-2.5-3.615-3.035-4.289zm-.48 3.727h-.01c-.244.006-.688-.076-.833-.15-.44-.224-.748-.604-1.104-1.044-.313-.387-.637-.786-1.088-1.122-.831-.62-1.772-.425-2.325.623-.31.588-.43.975-.48 1.677-2.215-.124-3.956-.995-5.445-2.713-1.489-1.717-2.618-4.167-3.603-6.646h2.239c.876 2.358 2.012 5.326 3.455 5.326.355 0 .673-.15.92-.435.95-1.094.575-3.973.571-4.002-.05-.355-.122-.727-.296-1.06.744-.029 1.742.02 2.327.107.057.305.02.91-.015 1.495-.087 1.426-.176 2.897.589 3.569.023.02.447.277.71.287.476.019 1.255-.213 2.515-2.403a20.23 20.23 0 001.248-2.593c.847-.001 2.033-.004 2.812-.003-.343.758-1.103 1.764-1.653 2.504-.453.61-.845 1.138-1.076 1.544-.43.755-.358 1.428.09 2.021a.149.149 0 00.007.01c.556.707 2 1.802 2.6 3.008h-2.156z" fill="#C4C4C4"/><path d="M5.938 30h18.125A5.944 5.944 0 0030 24.062V5.939A5.944 5.944 0 0024.062 0H5.938A5.944 5.944 0 000 5.938v18.125A5.944 5.944 0 005.938 30zM1.875 5.938a4.067 4.067 0 014.063-4.063h18.125a4.067 4.067 0 014.062 4.063v18.125a4.067 4.067 0 01-4.063 4.062H5.938a4.067 4.067 0 01-4.062-4.063V5.939z" fill="#C4C4C4"/></svg>