<svg width="31" height="30" fill="none" xmlns="http://www.w3.org/2000/svg"><path d="M21.074 16.921a7.51 7.51 0 00-1.333-1.13 10.614 10.614 0 003.898-6.033 1.335 1.335 0 00-.169-1.025 1.354 1.354 0 00-.855-.603 1.378 1.378 0 00-1.42.544 1.343 1.343 0 00-.215.485 7.872 7.872 0 01-1.471 3.083 7.973 7.973 0 01-2.647 2.184V9.461a1.28 1.28 0 00-.06-.291 1.366 1.366 0 00-.048-.231 1.336 1.336 0 00-.228-.337c-.024-.027-.036-.065-.062-.092a1.365 1.365 0 00-.336-.225c-.035-.02-.061-.05-.098-.065a1.403 1.403 0 00-.322-.066 1.3 1.3 0 00-.207-.042l-.892-.003h-.004c-.32-.002-.63.107-.875.309a1.331 1.331 0 00-.312 1.7c.159.275.41.485.71.594v6.6a15.201 15.201 0 01-4.105-8.076 1.348 1.348 0 00-.555-.875 1.375 1.375 0 00-1.901.319c-.21.292-.293.654-.233 1.007a17.972 17.972 0 007.364 11.664c.056.033.114.062.174.087.048.027.097.052.148.073.152.06.313.092.477.096.2-.003.398-.05.578-.138.014-.007.029-.003.042-.01.12-.062.231-.142.328-.237.02-.019.032-.04.052-.06a1.333 1.333 0 00.268-.438c.06-.149.092-.307.096-.467v-2.869a4.85 4.85 0 012.203 1.356l2.246 2.425a1.372 1.372 0 001.927.082 1.344 1.344 0 00.083-1.906l-2.246-2.424zM20.16.012h-8.367C3.396.012.969 2.412.969 10.71v8.28c0 8.31 2.424 10.712 10.81 10.712h8.367c8.395 0 10.823-2.4 10.823-10.698v-8.28c0-8.309-2.425-10.71-10.81-10.71zm8.082 18.991c0 6.802-1.21 7.999-8.097 7.999H11.78c-6.874 0-8.084-1.199-8.084-8.014v-8.277c0-6.803 1.21-8 8.097-8h8.366c6.873 0 8.082 1.199 8.082 8.013v8.28z" fill="#C5C5C5"/></svg>