<svg width="32" height="32" fill="none" xmlns="http://www.w3.org/2000/svg"><path d="M15.484 5.346C9.82 5.613 5.35 10.296 5.368 15.924c.003 1.657.4 3.29 1.158 4.763l-1.129 5.441a.413.413 0 00.502.483l5.37-1.263a10.646 10.646 0 004.569 1.101c5.789.089 10.614-4.475 10.795-10.219.194-6.16-4.925-11.18-11.15-10.885v.001zm6.407 16.392a8.303 8.303 0 01-5.888 2.42 8.288 8.288 0 01-3.706-.86l-.747-.371-3.293.774.693-3.34-.369-.716a8.128 8.128 0 01-.904-3.752c0-2.208.866-4.285 2.438-5.845a8.374 8.374 0 015.888-2.422 8.3 8.3 0 015.888 2.42 8.183 8.183 0 012.44 5.846 8.25 8.25 0 01-2.44 5.847v-.001z" fill="#AC6800"/><path d="M21.165 18.181l-2.06-.586a.77.77 0 00-.76.198l-.504.51a.755.755 0 01-.816.17c-.974-.39-3.024-2.2-3.548-3.105a.74.74 0 01.06-.826l.44-.566a.757.757 0 00.094-.774l-.866-1.945a.772.772 0 00-1.2-.274c-.575.484-1.257 1.216-1.34 2.03-.146 1.433.473 3.239 2.813 5.408 2.704 2.506 4.87 2.838 6.28 2.497.8-.192 1.44-.963 1.842-1.593a.76.76 0 00-.435-1.144z" fill="#AC6800"/><rect x="1" y="1" width="30" height="30" rx="5" stroke="#AC6800" stroke-width="2"/></svg>