<svg width="32" height="33" fill="none" xmlns="http://www.w3.org/2000/svg"><path d="M0 .944V32.56h32V.944H0zm2.91 2.874h26.18v25.867H2.91V3.818zM16 6.692c-5.673 0-10.182 4.455-10.182 10.06 0 1.868.582 3.592 1.455 5.03l-1.455 5.03 5.091-1.294c1.455.862 3.2 1.293 5.091 1.293 5.673 0 10.182-4.455 10.182-10.06 0-5.604-4.51-10.059-10.182-10.059zm0 2.156c4.364 0 8 3.593 8 7.904 0 4.31-3.636 7.904-8 7.904-1.454 0-2.764-.431-3.927-1.006l-.728-.431-.872.287-1.455.431.437-1.437.29-.862-.436-.719a7.657 7.657 0 01-1.164-4.024C8 12.441 11.636 8.848 16 8.848zm-3.2 3.736c-.146 0-.436 0-.582.288-.29.143-.873.718-.873 1.868 0 1.006.728 2.155.873 2.3.146.143 1.6 2.442 3.927 3.448 1.455.575 2.037.719 2.764.575.437-.144 1.455-.575 1.6-1.15.145-.575.145-1.006.291-.718 0-.144-.146-.144-.436-.288-.291-.143-1.455-.718-1.6-.718-.291 0-.437-.144-.582.143-.146.144-.582.72-.727.863-.146.143-.146.143-.437 0-1.454-.719-2.327-1.294-3.2-2.73-.145-.432.291-.432.728-1.294.145-.144 0-.287 0-.431-.146-.144-.582-1.293-.728-1.725-.29-.43-.436-.43-.582-.43H12.8z" fill="#AC6800"/></svg>